<svg width="226" height="34" viewBox="0 0 226 34" fill="none" xmlns="http://www.w3.org/2000/svg">
<path d="M64.1545 25.4409C64.1545 24.9982 64.0894 24.6011 63.9592 24.2495C63.8289 23.8849 63.5881 23.5464 63.2365 23.2339C62.8849 22.9214 62.3771 22.6089 61.7131 22.2964C61.062 21.9709 60.2026 21.6323 59.1349 21.2808C57.8849 20.8641 56.6805 20.3953 55.5217 19.8745C54.3628 19.3407 53.3276 18.7222 52.4162 18.019C51.5047 17.3029 50.7821 16.4696 50.2482 15.519C49.7144 14.5555 49.4474 13.4357 49.4474 12.1597C49.4474 10.9357 49.7209 9.83545 50.2677 8.85889C50.8146 7.8693 51.5763 7.02946 52.5529 6.33936C53.5425 5.63623 54.7013 5.10238 56.0295 4.73779C57.3576 4.36019 58.8094 4.17139 60.3849 4.17139C62.4683 4.17139 64.3042 4.53597 65.8927 5.26514C67.4943 5.98128 68.7443 7.00342 69.6427 8.33154C70.5542 9.64665 71.0099 11.2026 71.0099 12.9995H64.1935C64.1935 12.2834 64.0438 11.6519 63.7443 11.105C63.4579 10.5581 63.0217 10.1284 62.4357 9.81592C61.8498 9.50342 61.1141 9.34717 60.2287 9.34717C59.3693 9.34717 58.6467 9.47738 58.0607 9.73779C57.4748 9.99821 57.0321 10.3498 56.7326 10.7925C56.4331 11.2222 56.2834 11.6974 56.2834 12.2183C56.2834 12.6479 56.4006 13.0386 56.6349 13.3901C56.8823 13.7287 57.2274 14.0477 57.6701 14.3472C58.1258 14.6466 58.6727 14.9331 59.3107 15.2065C59.9618 15.48 60.6909 15.7469 61.4982 16.0073C63.0086 16.4891 64.3498 17.0295 65.5217 17.6284C66.7065 18.2144 67.7026 18.8849 68.5099 19.6401C69.3302 20.3823 69.9487 21.2287 70.3654 22.1792C70.7951 23.1297 71.0099 24.2039 71.0099 25.4019C71.0099 26.6779 70.7625 27.8107 70.2677 28.8003C69.773 29.7899 69.0633 30.6297 68.1388 31.3198C67.2144 31.9969 66.1076 32.5112 64.8185 32.8628C63.5295 33.2144 62.0907 33.3901 60.5021 33.3901C59.0438 33.3901 57.605 33.2078 56.1857 32.8433C54.7795 32.4657 53.5034 31.8927 52.3576 31.1245C51.2118 30.3433 50.2938 29.3472 49.6037 28.1362C48.9266 26.9123 48.5881 25.4604 48.5881 23.7808H55.4631C55.4631 24.6141 55.5737 25.3172 55.7951 25.8901C56.0164 26.4631 56.342 26.9253 56.7717 27.2769C57.2013 27.6154 57.7287 27.8628 58.3537 28.019C58.9787 28.1623 59.6948 28.2339 60.5021 28.2339C61.3745 28.2339 62.0776 28.1102 62.6115 27.8628C63.1454 27.6024 63.536 27.2638 63.7834 26.8472C64.0308 26.4175 64.1545 25.9487 64.1545 25.4409ZM73.8123 22.6479V22.2378C73.8123 20.6883 74.0336 19.2625 74.4763 17.9604C74.919 16.6453 75.5701 15.506 76.4295 14.5425C77.2888 13.5789 78.35 12.8302 79.6131 12.2964C80.8761 11.7495 82.3344 11.4761 83.9881 11.4761C85.6547 11.4761 87.1196 11.7495 88.3826 12.2964C89.6586 12.8302 90.7263 13.5789 91.5857 14.5425C92.4451 15.506 93.0961 16.6453 93.5388 17.9604C93.9815 19.2625 94.2029 20.6883 94.2029 22.2378V22.6479C94.2029 24.1844 93.9815 25.6102 93.5388 26.9253C93.0961 28.2274 92.4451 29.3667 91.5857 30.3433C90.7263 31.3068 89.6651 32.0555 88.4021 32.5894C87.1391 33.1232 85.6808 33.3901 84.0271 33.3901C82.3735 33.3901 80.9086 33.1232 79.6326 32.5894C78.3565 32.0555 77.2888 31.3068 76.4295 30.3433C75.5701 29.3667 74.919 28.2274 74.4763 26.9253C74.0336 25.6102 73.8123 24.1844 73.8123 22.6479ZM80.3943 22.2378V22.6479C80.3943 23.4422 80.4529 24.1844 80.5701 24.8745C80.6873 25.5646 80.8826 26.1701 81.156 26.6909C81.4295 27.1987 81.8006 27.5959 82.2693 27.8823C82.7381 28.1688 83.324 28.312 84.0271 28.312C84.7172 28.312 85.2901 28.1688 85.7459 27.8823C86.2146 27.5959 86.5857 27.1987 86.8592 26.6909C87.1326 26.1701 87.3279 25.5646 87.4451 24.8745C87.5623 24.1844 87.6209 23.4422 87.6209 22.6479V22.2378C87.6209 21.4696 87.5623 20.7469 87.4451 20.0698C87.3279 19.3797 87.1326 18.7743 86.8592 18.2534C86.5857 17.7196 86.2146 17.3029 85.7459 17.0034C85.2771 16.7039 84.6912 16.5542 83.9881 16.5542C83.298 16.5542 82.7185 16.7039 82.2498 17.0034C81.794 17.3029 81.4295 17.7196 81.156 18.2534C80.8826 18.7743 80.6873 19.3797 80.5701 20.0698C80.4529 20.7469 80.3943 21.4696 80.3943 22.2378ZM105.599 32.9995H98.9779V10.1479C98.9779 8.50732 99.3099 7.12712 99.974 6.00732C100.638 4.88753 101.576 4.04118 102.786 3.46826C103.997 2.88232 105.43 2.58936 107.083 2.58936C107.656 2.58936 108.197 2.62842 108.704 2.70654C109.212 2.78467 109.707 2.88232 110.189 2.99951L110.208 7.84326C109.974 7.77816 109.733 7.73258 109.486 7.70654C109.238 7.6805 108.932 7.66748 108.568 7.66748C107.93 7.66748 107.389 7.76514 106.947 7.96045C106.504 8.14274 106.165 8.42269 105.931 8.80029C105.71 9.16488 105.599 9.6141 105.599 10.1479V32.9995ZM109.701 11.8667V16.437H95.931V11.8667H109.701ZM123.597 11.8667V16.437H110.862V11.8667H123.597ZM113.538 6.61279H120.12V26.105C120.12 26.6649 120.185 27.1011 120.315 27.4136C120.446 27.7131 120.667 27.9279 120.979 28.0581C121.305 28.1753 121.735 28.2339 122.269 28.2339C122.646 28.2339 122.959 28.2274 123.206 28.2144C123.453 28.1883 123.688 28.1558 123.909 28.1167V32.8237C123.349 33.006 122.763 33.1427 122.151 33.2339C121.539 33.3381 120.888 33.3901 120.198 33.3901C118.792 33.3901 117.588 33.1688 116.585 32.7261C115.595 32.2834 114.84 31.5868 114.319 30.6362C113.798 29.6857 113.538 28.4487 113.538 26.9253V6.61279Z" fill="#0F172A"/>
<path d="M148.52 27.4136V32.9995H126.692V28.2729L136.747 17.7026C137.635 16.6857 138.351 15.7762 138.895 14.9741C139.439 14.1577 139.833 13.4201 140.077 12.7612C140.335 12.1024 140.463 11.508 140.463 10.978C140.463 10.0757 140.327 9.32373 140.055 8.72217C139.797 8.10628 139.411 7.64079 138.895 7.32568C138.394 7.01058 137.771 6.85303 137.026 6.85303C136.281 6.85303 135.629 7.06787 135.071 7.49756C134.512 7.92725 134.075 8.51449 133.76 9.25928C133.46 10.0041 133.309 10.842 133.309 11.7729H126.047C126.047 9.85368 126.513 8.09912 127.444 6.50928C128.389 4.91943 129.7 3.65186 131.376 2.70654C133.051 1.74691 134.992 1.26709 137.198 1.26709C139.504 1.26709 141.437 1.62516 142.999 2.34131C144.56 3.05745 145.734 4.09587 146.522 5.45654C147.324 6.8029 147.725 8.42855 147.725 10.3335C147.725 11.422 147.553 12.4676 147.21 13.4702C146.866 14.4728 146.372 15.4683 145.727 16.4565C145.083 17.4305 144.295 18.4331 143.364 19.4644C142.447 20.4956 141.402 21.5913 140.227 22.7515L136.188 27.4136H148.52Z" fill="#27AE60"/>
<path d="M159.042 16.3784V32.9995H152.46V11.8667H158.632L159.042 16.3784ZM158.261 21.7104L156.718 21.7495C156.718 20.1349 156.913 18.6961 157.304 17.4331C157.694 16.1571 158.248 15.0763 158.964 14.1909C159.68 13.3055 160.533 12.6349 161.523 12.1792C162.525 11.7104 163.638 11.4761 164.862 11.4761C165.839 11.4761 166.731 11.6193 167.538 11.9058C168.359 12.1922 169.062 12.6545 169.648 13.2925C170.247 13.9305 170.702 14.7769 171.015 15.8315C171.34 16.8732 171.503 18.1623 171.503 19.6987V32.9995H164.882V19.6792C164.882 18.8328 164.765 18.1883 164.53 17.7456C164.296 17.2899 163.957 16.9774 163.515 16.8081C163.072 16.6388 162.532 16.5542 161.894 16.5542C161.217 16.5542 160.644 16.6844 160.175 16.9448C159.706 17.2052 159.329 17.5698 159.042 18.0386C158.769 18.4943 158.567 19.0347 158.437 19.6597C158.319 20.2847 158.261 20.9683 158.261 21.7104ZM174.735 22.6479V22.2378C174.735 20.6883 174.956 19.2625 175.399 17.9604C175.842 16.6453 176.493 15.506 177.352 14.5425C178.212 13.5789 179.273 12.8302 180.536 12.2964C181.799 11.7495 183.257 11.4761 184.911 11.4761C186.578 11.4761 188.042 11.7495 189.305 12.2964C190.581 12.8302 191.649 13.5789 192.509 14.5425C193.368 15.506 194.019 16.6453 194.462 17.9604C194.904 19.2625 195.126 20.6883 195.126 22.2378V22.6479C195.126 24.1844 194.904 25.6102 194.462 26.9253C194.019 28.2274 193.368 29.3667 192.509 30.3433C191.649 31.3068 190.588 32.0555 189.325 32.5894C188.062 33.1232 186.604 33.3901 184.95 33.3901C183.296 33.3901 181.831 33.1232 180.555 32.5894C179.279 32.0555 178.212 31.3068 177.352 30.3433C176.493 29.3667 175.842 28.2274 175.399 26.9253C174.956 25.6102 174.735 24.1844 174.735 22.6479ZM181.317 22.2378V22.6479C181.317 23.4422 181.376 24.1844 181.493 24.8745C181.61 25.5646 181.805 26.1701 182.079 26.6909C182.352 27.1987 182.723 27.5959 183.192 27.8823C183.661 28.1688 184.247 28.312 184.95 28.312C185.64 28.312 186.213 28.1688 186.669 27.8823C187.137 27.5959 187.509 27.1987 187.782 26.6909C188.055 26.1701 188.251 25.5646 188.368 24.8745C188.485 24.1844 188.544 23.4422 188.544 22.6479V22.2378C188.544 21.4696 188.485 20.7469 188.368 20.0698C188.251 19.3797 188.055 18.7743 187.782 18.2534C187.509 17.7196 187.137 17.3029 186.669 17.0034C186.2 16.7039 185.614 16.5542 184.911 16.5542C184.221 16.5542 183.641 16.7039 183.173 17.0034C182.717 17.3029 182.352 17.7196 182.079 18.2534C181.805 18.7743 181.61 19.3797 181.493 20.0698C181.376 20.7469 181.317 21.4696 181.317 22.2378ZM204.881 26.7104L208.787 11.8667H212.909L211.444 19.3081L207.576 32.9995H204.276L204.881 26.7104ZM203.338 11.8667L205.76 26.5933L206.034 32.9995H202.03L197.03 11.8667H203.338ZM216.385 26.2808L218.826 11.8667H225.135L220.174 32.9995H216.17L216.385 26.2808ZM213.377 11.8667L217.323 26.6714L217.928 32.9995H214.588L210.799 19.3472L209.393 11.8667H213.377Z" fill="#10002B"/>
<path fill-rule="evenodd" clip-rule="evenodd" d="M1.52917 7.20467C0.632034 6.95352 0.400559 5.87914 1.14078 5.29913C3.65152 3.33143 6.93763 1.75124 10.2825 0.920458C21.7698 -1.93267 32.9803 3.09997 36.3382 13.3725C38.25 18.6207 36.4776 23.4186 34.0887 26.304C37.7779 28.9955 41.0507 29.555 41.3154 29.5954C42.5074 29.7804 43.3416 30.889 43.1599 32.0943C42.9832 33.2913 41.873 34.1188 40.6777 33.9488C36.4291 33.3345 24.397 28.7819 20.2365 12.0307C20.0908 11.4443 19.4919 11.0837 18.9056 11.2293C18.3192 11.375 17.9586 11.9739 18.1043 12.5602C20.2656 21.2623 24.3751 26.757 28.4761 30.2518C28.4243 30.2704 28.3726 30.2892 28.321 30.3079C27.9325 30.4488 27.5467 30.5887 27.1349 30.691C20.072 32.4452 12.9184 28.1382 11.1642 21.0752L9.8402 15.7447C8.79097 11.5202 5.63365 8.37823 1.52917 7.20467Z" fill="#27AE60"/>
</svg>
